<svg width="1440" height="1024" viewBox="0 0 1440 1024" fill="none" xmlns="http://www.w3.org/2000/svg">
<g clip-path="url(#clip0_1_2)">
<rect width="1440" height="1024" fill="white"/>
<g filter="url(#filter0_i_1_2)">
<path d="M372.5 577.5C630.1 714.3 685.833 937.5 681.5 1032H-62V-8H7C21.5 130.167 114.9 440.7 372.5 577.5Z" fill="#0500FF"/>
</g>
<path d="M362.765 561.139C366.272 559.027 370.835 560.151 372.947 563.671C375.059 567.178 373.935 571.74 370.415 573.852C366.908 575.965 362.346 574.841 360.234 571.321C358.121 567.828 359.259 563.265 362.765 561.139Z" fill="#FCC9A7"/>
<path d="M371.173 561.667C370.929 561.478 357.905 546.178 357.905 546.178L352.584 552.623L364.336 567.503L371.173 561.667Z" fill="#FCC9A7"/>
<path d="M360.193 680.947L356.876 696.097L346.397 694.527L349.781 679.58L360.193 680.947Z" fill="#FCC9A7"/>
<path d="M407.174 679.593L407.296 695.109L396.749 695.894L396.721 680.568L407.174 679.593Z" fill="#FCC9A7"/>
<path d="M358.203 693.633C357.986 692.997 357.214 692.726 356.659 693.132C355.576 693.917 353.667 694.838 350.905 694.513C348.035 694.175 347.006 692.658 346.654 691.575C346.464 691.007 345.855 690.709 345.3 690.925L327.523 698.047C326.44 698.48 325.573 699.32 325.127 700.389C324.693 701.391 325.425 702.515 326.521 702.515L356.727 702.731C357.918 702.745 358.866 701.757 358.812 700.565L358.555 694.73C358.555 694.635 358.528 694.54 358.501 694.445L358.203 693.633Z" fill="#0C0C0C"/>
<path d="M395.679 693.633C395.896 692.997 396.681 692.726 397.222 693.132C398.306 693.917 400.215 694.838 402.977 694.513C405.847 694.175 406.862 692.658 407.228 691.575C407.417 691.007 408.027 690.709 408.582 690.925L426.359 698.047C427.442 698.48 428.308 699.32 428.755 700.389C429.188 701.391 428.457 702.515 427.361 702.515L397.155 702.731C395.963 702.745 395.016 701.757 395.07 700.565L395.327 694.73C395.327 694.635 395.354 694.54 395.381 694.445L395.679 693.633Z" fill="#0C0C0C"/>
<path d="M395.544 485.076L386.161 485.889L371.241 494.297V554.085H411.059V494.297L395.544 485.076Z" fill="#54585A"/>
<path d="M392.971 491.101H390.277C387.488 491.101 385.227 488.84 385.227 486.051V475.924H398.008V486.051C398.021 488.84 395.76 491.101 392.971 491.101Z" fill="#FCC9A7"/>
<path d="M385.227 481.082C385.227 481.082 387.217 485.076 391.739 485.076C396.261 485.076 398.008 481.001 398.008 481.001L385.227 481.082Z" fill="#F4BE9A"/>
<path d="M391.766 482.734H391.347C384.834 482.734 379.473 477.589 379.215 471.077L378.985 464.592C378.714 457.7 384.225 451.973 391.116 451.973H391.996C397.209 451.973 404.398 457.7 404.127 464.592L403.897 471.077C403.64 477.589 398.279 482.734 391.766 482.734Z" fill="#FCC9A7"/>
<path d="M382.939 469.506C383.088 471.7 381.436 473.595 379.243 473.744C377.049 473.893 375.154 472.241 375.005 470.048C374.856 467.855 376.508 465.959 378.701 465.81C380.894 465.675 382.79 467.327 382.939 469.506Z" fill="#FCC9A7"/>
<path d="M408.094 469.506C408.243 471.7 406.592 473.595 404.398 473.744C402.205 473.893 400.309 472.241 400.16 470.048C400.011 467.855 401.663 465.959 403.857 465.81C406.05 465.675 407.945 467.327 408.094 469.506Z" fill="#FCC9A7"/>
<path d="M371.241 553.801L346.478 685.442L360.707 685.307L396.911 554.058L371.241 553.801Z" fill="#0C0C0C"/>
<path d="M411.059 554.085L409.502 685.577H394.461L388.463 554.911L411.059 554.085Z" fill="#0C0C0C"/>
<path d="M371.241 494.297C371.241 494.297 337.989 514.362 329.906 528.28C328.322 531.001 330.38 534.521 333.169 535.97C336.256 537.581 340.06 536.484 341.834 533.492L372.595 515.648C372.608 515.648 371.241 500.321 371.241 494.297Z" fill="#54585A"/>
<path d="M378.295 457.226L379.229 467.191H380.732L380.921 461.965C380.921 461.965 381.707 459.961 385.213 455.656C385.213 455.656 387.501 461.505 401.677 460.367L402.503 466.975L403.965 466.812L404.737 459.718C405.251 457.321 405.427 455.087 404.994 452.677C404.114 447.803 400.147 445.109 388.693 448.548C387.745 448.832 389.681 448.643 388.693 448.548C385.416 448.182 376.778 448.142 378.295 457.226Z" fill="#2E2A33"/>
<path d="M395.164 553.138L391.942 587.608C391.82 588.908 392.7 590.086 393.987 590.33L433.521 597.884C434.97 598.169 436.351 597.14 436.513 595.678L440.128 562.913C440.263 561.64 439.437 560.462 438.178 560.164L398.251 550.904C396.762 550.552 395.313 551.608 395.164 553.138Z" fill="#AFAFAF"/>
<path d="M397.358 553.747L394.136 588.217C394.014 589.517 394.894 590.695 396.18 590.939L435.714 598.494C437.163 598.764 438.544 597.749 438.706 596.287L442.321 563.522C442.457 562.249 441.631 561.072 440.372 560.774L400.445 551.513C398.969 551.161 397.507 552.217 397.358 553.747Z" fill="#D1D1D1"/>
<path d="M417.937 588.935C421.864 590.099 424.111 594.229 422.947 598.155C421.782 602.082 417.653 604.329 413.727 603.178C409.8 602.014 407.553 597.884 408.704 593.958C409.882 590.018 413.997 587.771 417.937 588.935Z" fill="#FCC9A7"/>
<path d="M423.231 595.488C423.204 595.177 421.931 574.516 421.931 574.516L414.905 575.789L415.839 593.403L423.231 595.488Z" fill="#FCC9A7"/>
<path d="M411.059 494.297C411.059 494.297 421.701 501.919 422.378 512.777L425.709 538.163C425.898 539.653 425.98 541.142 425.925 542.645L424.639 581.258H410.031L409.76 539.463L411.059 494.297Z" fill="#54585A"/>
<path d="M387.285 485.076C386.147 485.902 380.664 488.989 380.664 488.989C380.664 488.989 380.813 496.707 392.43 496.084C402.652 495.542 402.584 489.274 402.584 489.274L395.53 485.076H387.285Z" fill="#FCC9A7"/>
<path d="M346.288 523.27L366.164 555.033L356.74 563.955L329.96 532.694L346.288 523.27Z" fill="#54585A"/>
<path d="M409.746 553.666V539.45L406.443 513.522" stroke="#424647" stroke-width="0.7693" stroke-miterlimit="10" stroke-linecap="round" stroke-linejoin="round"/>
<ellipse cx="379.5" cy="702.5" rx="76.5" ry="16.5" fill="#0C0C0C" fill-opacity="0.38"/>
</g>
<defs>
<filter id="filter0_i_1_2" x="-102" y="-8" width="783.728" height="1053" filterUnits="userSpaceOnUse" color-interpolation-filters="sRGB">
<feFlood flood-opacity="0" result="BackgroundImageFix"/>
<feBlend mode="normal" in="SourceGraphic" in2="BackgroundImageFix" result="shape"/>
<feColorMatrix in="SourceAlpha" type="matrix" values="0 0 0 0 0 0 0 0 0 0 0 0 0 0 0 0 0 0 127 0" result="hardAlpha"/>
<feOffset dx="-40" dy="13"/>
<feGaussianBlur stdDeviation="66"/>
<feComposite in2="hardAlpha" operator="arithmetic" k2="-1" k3="1"/>
<feColorMatrix type="matrix" values="0 0 0 0 0.17075 0 0 0 0 0.154167 0 0 0 0 1 0 0 0 1 0"/>
<feBlend mode="normal" in2="shape" result="effect1_innerShadow_1_2"/>
</filter>
<clipPath id="clip0_1_2">
<rect width="1440" height="1024" fill="white"/>
</clipPath>
</defs>
</svg>
